<svg width="327" height="26" viewBox="0 0 327 26" fill="none" xmlns="http://www.w3.org/2000/svg">
<g clip-path="url(#clip0_355_13900)">
<path d="M115.062 0H89V26H115.062V0Z" fill="#00B67A"/>
<path d="M143.297 0H117.234V26H143.297V0Z" fill="#00B67A"/>
<path d="M171.531 0H145.469V26H171.531V0Z" fill="#00B67A"/>
<path d="M199.766 0H173.703V26H199.766V0Z" fill="#00B67A"/>
<path d="M228 0H214.969V26H228V0Z" fill="#DCDCE6"/>
<path d="M214.969 0H201.938V26H214.969V0Z" fill="#00B67A"/>
<path d="M102.031 17.5231L105.995 16.521L107.651 21.6127L102.031 17.5231ZM111.153 10.9419H104.176L102.031 4.3877L99.8866 10.9419H92.9094L98.5563 15.0044L96.4116 21.5585L102.058 17.496L105.533 15.0044L111.153 10.9419Z" fill="white"/>
<path d="M130.266 17.5231L134.229 16.521L135.885 21.6127L130.266 17.5231ZM139.388 10.9419H132.41L130.266 4.3877L128.121 10.9419H121.144L126.791 15.0044L124.646 21.5585L130.293 17.496L133.768 15.0044L139.388 10.9419Z" fill="white"/>
<path d="M158.5 17.5231L162.464 16.521L164.12 21.6127L158.5 17.5231ZM167.622 10.9419H160.645L158.5 4.3877L156.355 10.9419H149.378L155.025 15.0044L152.88 21.5585L158.527 17.496L162.002 15.0044L167.622 10.9419Z" fill="white"/>
<path d="M186.734 17.5231L190.698 16.521L192.354 21.6127L186.734 17.5231ZM195.856 10.9419H188.879L186.734 4.3877L184.59 10.9419H177.613L183.259 15.0044L181.115 21.5585L186.762 17.496L190.237 15.0044L195.856 10.9419Z" fill="white"/>
<path d="M214.969 17.5231L218.932 16.521L220.589 21.6127L214.969 17.5231ZM224.091 10.9419H217.114L214.969 4.3877L212.824 10.9419H205.847L211.494 15.0044L209.349 21.5585L214.996 17.496L218.471 15.0044L224.091 10.9419Z" fill="white"/>
</g>
<path d="M265.309 10.0332H273.711V11.5641H270.407V20.1699H268.591V11.5641H265.302V10.0332H265.309ZM273.352 12.8303H274.905V14.2467H274.935C274.986 14.0464 275.081 13.8532 275.22 13.6672C275.36 13.4812 275.528 13.3024 275.726 13.1522C275.924 12.9948 276.143 12.8732 276.385 12.773C276.627 12.68 276.876 12.63 277.125 12.63C277.316 12.63 277.455 12.6371 277.528 12.6443C277.601 12.6514 277.675 12.6657 277.755 12.6729V14.2324C277.638 14.2109 277.521 14.1966 277.396 14.1823C277.272 14.168 277.154 14.1608 277.037 14.1608C276.759 14.1608 276.495 14.2181 276.246 14.3254C275.997 14.4327 275.785 14.5972 275.601 14.8047C275.418 15.0193 275.272 15.2768 275.162 15.5916C275.052 15.9063 275.001 16.264 275.001 16.6718V20.1627H273.345V12.8303H273.352ZM285.366 20.1699H283.74V19.1469H283.711C283.506 19.5189 283.205 19.8122 282.802 20.034C282.4 20.2557 281.989 20.3702 281.572 20.3702C280.583 20.3702 279.865 20.1341 279.425 19.6548C278.986 19.1755 278.766 18.453 278.766 17.4873V12.8303H280.422V17.3299C280.422 17.9737 280.546 18.4316 280.803 18.6962C281.052 18.9609 281.411 19.0968 281.865 19.0968C282.216 19.0968 282.502 19.0468 282.737 18.9395C282.971 18.8322 283.161 18.6962 283.301 18.5174C283.447 18.3457 283.55 18.1311 283.616 17.8879C283.682 17.6447 283.711 17.38 283.711 17.0938V12.8374H285.366V20.1699ZM288.187 17.8163C288.238 18.2885 288.421 18.6175 288.736 18.8107C289.059 18.9967 289.44 19.0968 289.886 19.0968C290.04 19.0968 290.216 19.0825 290.414 19.0611C290.612 19.0396 290.802 18.9895 290.971 18.9252C291.146 18.8608 291.286 18.7606 291.403 18.6319C291.513 18.5031 291.564 18.3386 291.557 18.1311C291.549 17.9236 291.469 17.752 291.322 17.6232C291.176 17.4873 290.993 17.3871 290.765 17.3013C290.538 17.2226 290.282 17.1511 289.989 17.0938C289.696 17.0366 289.403 16.9722 289.103 16.9078C288.795 16.8434 288.495 16.7576 288.209 16.6646C287.923 16.5716 287.667 16.4428 287.44 16.2783C287.213 16.1209 287.029 15.9135 286.898 15.6631C286.758 15.4127 286.692 15.1051 286.692 14.7331C286.692 14.3325 286.795 14.0035 286.993 13.7316C287.191 13.4598 287.447 13.2452 287.747 13.0806C288.055 12.9161 288.392 12.8017 288.766 12.7301C289.139 12.6657 289.498 12.63 289.835 12.63C290.223 12.63 290.597 12.6729 290.949 12.7516C291.3 12.8303 291.623 12.959 291.908 13.145C292.194 13.3239 292.428 13.5599 292.619 13.8461C292.809 14.1322 292.927 14.4828 292.978 14.8905H291.249C291.168 14.5042 290.993 14.2395 290.707 14.1108C290.421 13.9748 290.092 13.9105 289.725 13.9105C289.608 13.9105 289.469 13.9176 289.308 13.9391C289.147 13.9605 289 13.9963 288.853 14.0464C288.714 14.0965 288.597 14.1751 288.495 14.2753C288.399 14.3755 288.348 14.5042 288.348 14.6687C288.348 14.869 288.421 15.0264 288.56 15.148C288.7 15.2697 288.883 15.3698 289.11 15.4556C289.337 15.5343 289.593 15.6059 289.886 15.6631C290.179 15.7203 290.48 15.7847 290.787 15.8491C291.088 15.9135 291.381 15.9993 291.674 16.0923C291.967 16.1853 292.223 16.3141 292.45 16.4786C292.677 16.6431 292.861 16.8434 293 17.0867C293.139 17.3299 293.212 17.6375 293.212 17.9952C293.212 18.4316 293.11 18.7964 292.905 19.104C292.699 19.4044 292.436 19.6548 292.113 19.8408C291.791 20.0268 291.425 20.1699 291.029 20.2557C290.634 20.3416 290.238 20.3845 289.85 20.3845C289.374 20.3845 288.934 20.3344 288.531 20.2271C288.128 20.1198 287.777 19.9624 287.484 19.755C287.191 19.5404 286.956 19.2757 286.788 18.9609C286.619 18.6462 286.531 18.267 286.517 17.8306H288.187V17.8163ZM293.652 12.8303H294.904V10.627H296.56V12.8303H298.055V14.0392H296.56V17.9594C296.56 18.1311 296.567 18.2742 296.582 18.4029C296.597 18.5246 296.633 18.6319 296.685 18.7177C296.736 18.8035 296.816 18.8679 296.926 18.9108C297.036 18.9538 297.175 18.9752 297.366 18.9752C297.483 18.9752 297.6 18.9752 297.718 18.9681C297.835 18.9609 297.952 18.9466 298.069 18.918V20.1699C297.886 20.1913 297.703 20.2057 297.534 20.2271C297.359 20.2486 297.183 20.2557 297 20.2557C296.56 20.2557 296.208 20.2128 295.945 20.1341C295.681 20.0554 295.469 19.9338 295.322 19.7764C295.168 19.6191 295.073 19.4259 295.014 19.1898C294.963 18.9538 294.926 18.6819 294.919 18.3815V14.0535H293.666V12.8303H293.652ZM299.227 12.8303H300.794V13.8246H300.824C301.058 13.3954 301.38 13.095 301.798 12.909C302.215 12.723 302.662 12.63 303.153 12.63C303.747 12.63 304.259 12.7301 304.699 12.9376C305.138 13.1379 305.505 13.4169 305.798 13.7745C306.091 14.1322 306.303 14.5471 306.45 15.0193C306.596 15.4914 306.669 15.9993 306.669 16.5358C306.669 17.0294 306.604 17.5087 306.472 17.9666C306.34 18.4316 306.142 18.8393 305.878 19.197C305.615 19.5547 305.278 19.8337 304.867 20.0483C304.457 20.2629 303.981 20.3702 303.424 20.3702C303.182 20.3702 302.941 20.3487 302.699 20.3058C302.457 20.2629 302.223 20.1913 302.003 20.0983C301.783 20.0054 301.571 19.8837 301.388 19.7335C301.197 19.5833 301.043 19.4116 300.912 19.2185H300.882V22.8811H299.227V12.8303ZM305.014 16.5072C305.014 16.1782 304.97 15.8563 304.882 15.5415C304.794 15.2267 304.662 14.9549 304.486 14.7117C304.311 14.4684 304.091 14.2753 303.834 14.1322C303.571 13.9892 303.27 13.9105 302.933 13.9105C302.237 13.9105 301.71 14.1465 301.358 14.6187C301.007 15.0908 300.831 15.7203 300.831 16.5072C300.831 16.8792 300.875 17.2226 300.97 17.5374C301.065 17.8521 301.197 18.1239 301.388 18.3529C301.571 18.5818 301.791 18.7606 302.047 18.8894C302.303 19.0253 302.604 19.0897 302.941 19.0897C303.322 19.0897 303.637 19.011 303.9 18.8608C304.164 18.7105 304.377 18.5102 304.545 18.2742C304.714 18.031 304.838 17.7591 304.911 17.4515C304.977 17.1439 305.014 16.8291 305.014 16.5072ZM307.937 10.0332H309.592V11.5641H307.937V10.0332ZM307.937 12.8303H309.592V20.1699H307.937V12.8303ZM311.072 10.0332H312.728V20.1699H311.072V10.0332ZM317.804 20.3702C317.204 20.3702 316.669 20.27 316.2 20.0769C315.731 19.8837 315.336 19.6119 315.006 19.2757C314.684 18.9323 314.435 18.5245 314.266 18.0524C314.098 17.5803 314.01 17.0581 314.01 16.4929C314.01 15.9349 314.098 15.4199 314.266 14.9477C314.435 14.4756 314.684 14.0678 315.006 13.7245C315.328 13.3811 315.731 13.1164 316.2 12.9233C316.669 12.7301 317.204 12.63 317.804 12.63C318.405 12.63 318.94 12.7301 319.409 12.9233C319.878 13.1164 320.273 13.3883 320.603 13.7245C320.925 14.0678 321.174 14.4756 321.343 14.9477C321.511 15.4199 321.599 15.9349 321.599 16.4929C321.599 17.0581 321.511 17.5803 321.343 18.0524C321.174 18.5245 320.925 18.9323 320.603 19.2757C320.281 19.6191 319.878 19.8837 319.409 20.0769C318.94 20.27 318.405 20.3702 317.804 20.3702ZM317.804 19.0897C318.171 19.0897 318.493 19.011 318.764 18.8608C319.035 18.7105 319.255 18.5102 319.431 18.267C319.607 18.0238 319.731 17.7448 319.819 17.4372C319.9 17.1296 319.944 16.8148 319.944 16.4929C319.944 16.1782 319.9 15.8706 319.819 15.5558C319.738 15.241 319.607 14.9692 319.431 14.726C319.255 14.4828 319.035 14.2896 318.764 14.1394C318.493 13.9892 318.171 13.9105 317.804 13.9105C317.438 13.9105 317.116 13.9892 316.845 14.1394C316.574 14.2896 316.354 14.4899 316.178 14.726C316.002 14.9692 315.878 15.241 315.79 15.5558C315.709 15.8706 315.665 16.1782 315.665 16.4929C315.665 16.8148 315.709 17.1296 315.79 17.4372C315.87 17.7448 316.002 18.0238 316.178 18.267C316.354 18.5102 316.574 18.7105 316.845 18.8608C317.116 19.0181 317.438 19.0897 317.804 19.0897ZM322.083 12.8303H323.335V10.627H324.991V12.8303H326.485V14.0392H324.991V17.9594C324.991 18.1311 324.998 18.2742 325.013 18.4029C325.028 18.5246 325.064 18.6319 325.115 18.7177C325.167 18.8035 325.247 18.8679 325.357 18.9108C325.467 18.9538 325.606 18.9752 325.797 18.9752C325.914 18.9752 326.031 18.9752 326.148 18.9681C326.266 18.9609 326.383 18.9466 326.5 18.918V20.1699C326.317 20.1913 326.134 20.2057 325.965 20.2271C325.789 20.2486 325.614 20.2557 325.43 20.2557C324.991 20.2557 324.639 20.2128 324.376 20.1341C324.112 20.0554 323.899 19.9338 323.753 19.7764C323.599 19.6191 323.504 19.4259 323.445 19.1898C323.394 18.9538 323.357 18.6819 323.35 18.3815V14.0535H322.097V12.8303H322.083Z" fill="black"/>
<path d="M263.374 10.0535H255.785L253.441 3L251.089 10.0535L243.5 10.0463L249.646 14.41L247.295 21.4563L253.441 17.0998L259.58 21.4563L257.236 14.41L263.374 10.0535Z" fill="#00B67A"/>
<path d="M257.763 16.0049L257.236 14.4097L253.441 17.0994L257.763 16.0049Z" fill="#005128"/>
<path d="M2.14694 7.576H10.3709V9.304H4.14694V12.296H9.90694V13.928H4.14694V17.272H10.4829V19H2.14694V7.576ZM14.5131 14.648L11.6491 10.728H13.8571L15.5851 13.272L17.3931 10.728H19.5051L16.6891 14.552L19.8571 19H17.6651L15.5691 15.944L13.5371 19H11.3931L14.5131 14.648ZM26.7868 13.496C26.7121 12.984 26.5041 12.6 26.1628 12.344C25.8321 12.0773 25.4108 11.944 24.8988 11.944C24.6641 11.944 24.4135 11.9867 24.1468 12.072C23.8801 12.1467 23.6348 12.296 23.4108 12.52C23.1868 12.7333 23.0001 13.0373 22.8508 13.432C22.7015 13.816 22.6268 14.3227 22.6268 14.952C22.6268 15.2933 22.6641 15.6347 22.7388 15.976C22.8241 16.3173 22.9521 16.6213 23.1228 16.888C23.3041 17.1547 23.5335 17.3733 23.8108 17.544C24.0881 17.704 24.4241 17.784 24.8188 17.784C25.3521 17.784 25.7895 17.6187 26.1308 17.288C26.4828 16.9573 26.7015 16.4933 26.7868 15.896H28.6108C28.4401 16.9733 28.0295 17.8 27.3788 18.376C26.7388 18.9413 25.8855 19.224 24.8188 19.224C24.1681 19.224 23.5921 19.1173 23.0908 18.904C22.6001 18.68 22.1841 18.3813 21.8428 18.008C21.5015 17.624 21.2401 17.1707 21.0588 16.648C20.8881 16.1253 20.8028 15.56 20.8028 14.952C20.8028 14.3333 20.8881 13.752 21.0588 13.208C21.2295 12.664 21.4855 12.1947 21.8268 11.8C22.1681 11.3947 22.5895 11.08 23.0908 10.856C23.6028 10.6213 24.2001 10.504 24.8828 10.504C25.3628 10.504 25.8161 10.568 26.2428 10.696C26.6801 10.8133 27.0641 10.9947 27.3948 11.24C27.7361 11.4853 28.0135 11.7947 28.2268 12.168C28.4401 12.5413 28.5681 12.984 28.6108 13.496H26.7868ZM36.0934 14.136C36.0721 13.848 36.0081 13.5707 35.9014 13.304C35.8054 13.0373 35.6668 12.808 35.4854 12.616C35.3148 12.4133 35.1014 12.2533 34.8454 12.136C34.6001 12.008 34.3228 11.944 34.0134 11.944C33.6934 11.944 33.4001 12.0027 33.1334 12.12C32.8774 12.2267 32.6534 12.3813 32.4614 12.584C32.2801 12.776 32.1308 13.0053 32.0134 13.272C31.9068 13.5387 31.8481 13.8267 31.8374 14.136H36.0934ZM31.8374 15.336C31.8374 15.656 31.8801 15.9653 31.9654 16.264C32.0614 16.5627 32.2001 16.824 32.3814 17.048C32.5628 17.272 32.7921 17.4533 33.0694 17.592C33.3468 17.72 33.6774 17.784 34.0614 17.784C34.5948 17.784 35.0214 17.672 35.3414 17.448C35.6721 17.2133 35.9174 16.8667 36.0774 16.408H37.8054C37.7094 16.856 37.5441 17.256 37.3094 17.608C37.0748 17.96 36.7921 18.2587 36.4614 18.504C36.1308 18.7387 35.7574 18.9147 35.3414 19.032C34.9361 19.16 34.5094 19.224 34.0614 19.224C33.4108 19.224 32.8348 19.1173 32.3334 18.904C31.8321 18.6907 31.4054 18.392 31.0534 18.008C30.7121 17.624 30.4508 17.1653 30.2694 16.632C30.0988 16.0987 30.0134 15.512 30.0134 14.872C30.0134 14.2853 30.1041 13.7307 30.2854 13.208C30.4774 12.6747 30.7441 12.2107 31.0854 11.816C31.4374 11.4107 31.8588 11.0907 32.3494 10.856C32.8401 10.6213 33.3948 10.504 34.0134 10.504C34.6641 10.504 35.2454 10.6427 35.7574 10.92C36.2801 11.1867 36.7121 11.544 37.0534 11.992C37.3948 12.44 37.6401 12.9573 37.7894 13.544C37.9494 14.12 37.9921 14.7173 37.9174 15.336H31.8374ZM39.6721 7.576H41.4961V19H39.6721V7.576ZM43.8514 7.576H45.6754V19H43.8514V7.576ZM53.6628 14.136C53.6415 13.848 53.5775 13.5707 53.4708 13.304C53.3748 13.0373 53.2361 12.808 53.0548 12.616C52.8841 12.4133 52.6708 12.2533 52.4148 12.136C52.1695 12.008 51.8921 11.944 51.5828 11.944C51.2628 11.944 50.9695 12.0027 50.7028 12.12C50.4468 12.2267 50.2228 12.3813 50.0308 12.584C49.8495 12.776 49.7001 13.0053 49.5828 13.272C49.4761 13.5387 49.4175 13.8267 49.4068 14.136H53.6628ZM49.4068 15.336C49.4068 15.656 49.4495 15.9653 49.5348 16.264C49.6308 16.5627 49.7695 16.824 49.9508 17.048C50.1321 17.272 50.3615 17.4533 50.6388 17.592C50.9161 17.72 51.2468 17.784 51.6308 17.784C52.1641 17.784 52.5908 17.672 52.9108 17.448C53.2415 17.2133 53.4868 16.8667 53.6468 16.408H55.3748C55.2788 16.856 55.1135 17.256 54.8788 17.608C54.6441 17.96 54.3615 18.2587 54.0308 18.504C53.7001 18.7387 53.3268 18.9147 52.9108 19.032C52.5055 19.16 52.0788 19.224 51.6308 19.224C50.9801 19.224 50.4041 19.1173 49.9028 18.904C49.4015 18.6907 48.9748 18.392 48.6228 18.008C48.2815 17.624 48.0201 17.1653 47.8388 16.632C47.6681 16.0987 47.5828 15.512 47.5828 14.872C47.5828 14.2853 47.6735 13.7307 47.8548 13.208C48.0468 12.6747 48.3135 12.2107 48.6548 11.816C49.0068 11.4107 49.4281 11.0907 49.9188 10.856C50.4095 10.6213 50.9641 10.504 51.5828 10.504C52.2335 10.504 52.8148 10.6427 53.3268 10.92C53.8495 11.1867 54.2815 11.544 54.6228 11.992C54.9641 12.44 55.2095 12.9573 55.3588 13.544C55.5188 14.12 55.5615 14.7173 55.4868 15.336H49.4068ZM57.1934 10.728H58.9214V11.944L58.9534 11.976C59.2308 11.5173 59.5934 11.16 60.0414 10.904C60.4894 10.6373 60.9854 10.504 61.5294 10.504C62.4361 10.504 63.1508 10.7387 63.6734 11.208C64.1961 11.6773 64.4574 12.3813 64.4574 13.32V19H62.6334V13.8C62.6121 13.1493 62.4734 12.68 62.2174 12.392C61.9614 12.0933 61.5614 11.944 61.0174 11.944C60.7081 11.944 60.4308 12.0027 60.1854 12.12C59.9401 12.2267 59.7321 12.3813 59.5614 12.584C59.3908 12.776 59.2574 13.0053 59.1614 13.272C59.0654 13.5387 59.0174 13.8213 59.0174 14.12V19H57.1934V10.728ZM65.8689 10.728H67.2449V8.248H69.0689V10.728H70.7169V12.088H69.0689V16.504C69.0689 16.696 69.0743 16.8613 69.0849 17C69.1063 17.1387 69.1436 17.256 69.1969 17.352C69.2609 17.448 69.3516 17.5227 69.4689 17.576C69.5863 17.6187 69.7463 17.64 69.9489 17.64C70.0769 17.64 70.2049 17.64 70.3329 17.64C70.4609 17.6293 70.5889 17.608 70.7169 17.576V18.984C70.5143 19.0053 70.3169 19.0267 70.1249 19.048C69.9329 19.0693 69.7356 19.08 69.5329 19.08C69.0529 19.08 68.6636 19.0373 68.3649 18.952C68.0769 18.856 67.8476 18.7227 67.6769 18.552C67.5169 18.3707 67.4049 18.1467 67.3409 17.88C67.2876 17.6133 67.2556 17.3093 67.2449 16.968V12.088H65.8689V10.728Z" fill="black"/>
<defs>
<clipPath id="clip0_355_13900">
<rect width="139" height="26" fill="white" transform="translate(89)"/>
</clipPath>
</defs>
</svg>
